<svg width="180" height="40" viewBox="0 0 180 40" fill="none" xmlns="http://www.w3.org/2000/svg">
  <!-- Abstract shield/bank icon - Light theme version -->
  <g>
    <!-- Outer shield shape -->
    <path d="M20 4L4 10V20C4 28.284 10.716 35 19 36.5C19.656 36.61 20.344 36.61 21 36.5C29.284 35 36 28.284 36 20V10L20 4Z" fill="url(#gradient1-light)" />
    <!-- Inner accent -->
    <path d="M20 8L8 12.5V20C8 26.075 12.925 31 19 32.25C19.656 32.36 20.344 32.36 21 32.25C27.075 31 32 26.075 32 20V12.5L20 8Z" fill="url(#gradient2-light)" opacity="0.9"/>
    <!-- Central dollar/abstract mark -->
    <path d="M20 14V26M16 18H24M16 22H24" stroke="white" stroke-width="2" stroke-linecap="round"/>
  </g>
  
  <!-- Gradients -->
  <defs>
    <linearGradient id="gradient1-light" x1="4" y1="4" x2="36" y2="36" gradientUnits="userSpaceOnUse">
      <stop offset="0%" stop-color="#0066CC"/>
      <stop offset="100%" stop-color="#00A67E"/>
    </linearGradient>
    <linearGradient id="gradient2-light" x1="8" y1="8" x2="32" y2="32" gradientUnits="userSpaceOnUse">
      <stop offset="0%" stop-color="#1E293B"/>
      <stop offset="100%" stop-color="#334155"/>
    </linearGradient>
  </defs>
</svg>
